<svg viewBox="0 0 90 26"><path d="M.39 4.31h6.39V23h2.28V4.31h6.33V2.24h-15v2.07zM20.19 23V10.61s2.1-.9 4.23-.9c2.76 0 3.21 1.47 3.21 5.43V23h2.25v-7.92c0-5.34-.96-7.38-5.07-7.38-2.22 0-4.62 1.14-4.62 1.14V1.46h-2.25V23h2.25zm19.41-1.68c-2.94 0-3.93-1.68-3.93-4.89h9.9l.12-1.71c0-4.92-2.04-7.02-6.03-7.02-3.81 0-6.27 2.19-6.27 7.89 0 5.1 1.47 7.71 5.94 7.71 2.43 0 5.85-.48 5.85-.48l-.06-1.77s-3.27.27-5.52.27zm-3.96-6.69c.03-3.63 1.47-5.04 4.02-5.04 2.64 0 3.78 1.32 3.78 5.04h-7.8zM49.2 23h2.25V11.99s2.64-1.47 5.46-2.04V7.67c-2.88.57-5.49 2.37-5.49 2.37V8H49.2v15zM65.04 7.7c-4.74 0-6.42 2.46-6.42 7.62 0 5.46 1.38 7.98 6.42 7.98 5.07 0 6.42-2.52 6.42-7.98 0-5.16-1.65-7.62-6.42-7.62zm0 13.65c-3.54 0-4.11-1.77-4.11-6.03 0-4.17.93-5.67 4.11-5.67 3.21 0 4.11 1.5 4.11 5.67 0 4.26-.54 6.03-4.11 6.03zM77.37 23V10.82s2.07-1.11 4.23-1.11c2.79 0 3.24 1.47 3.24 5.43V23h2.22v-7.92c0-5.34-.93-7.38-5.07-7.38-2.22 0-4.65 1.35-4.65 1.35V8h-2.22v15h2.25z" /></svg>
